<svg xmlns="http://www.w3.org/2000/svg" viewBox="0 0 100 100" role="img" aria-label="Fichaje Ofipapel">
  <circle cx="50" cy="50" r="49" fill="#FFFFFF" stroke="#E2E2E2" stroke-width="2"/>
  <path d="M50 82 C50 82 50 62 50 55" fill="none" stroke="#111111" stroke-width="4.5" stroke-linecap="round"/>
  <g fill="#111111">
    <path d="M50,52 C50,52 34,40 34,27 C34,19 40,15 46,18 C48,19.3 49.2,20.8 50,22.5 C50.8,20.8 52,19.3 54,18 C60,15 66,19 66,27 C66,40 50,52 50,52 Z"/>
    <path d="M50,52 C50,52 34,40 34,27 C34,19 40,15 46,18 C48,19.3 49.2,20.8 50,22.5 C50.8,20.8 52,19.3 54,18 C60,15 66,19 66,27 C66,40 50,52 50,52 Z" transform="rotate(90 50 50)"/>
    <path d="M50,52 C50,52 34,40 34,27 C34,19 40,15 46,18 C48,19.3 49.2,20.8 50,22.5 C50.8,20.8 52,19.3 54,18 C60,15 66,19 66,27 C66,40 50,52 50,52 Z" transform="rotate(180 50 50)"/>
    <path d="M50,52 C50,52 34,40 34,27 C34,19 40,15 46,18 C48,19.3 49.2,20.8 50,22.5 C50.8,20.8 52,19.3 54,18 C60,15 66,19 66,27 C66,40 50,52 50,52 Z" transform="rotate(270 50 50)"/>
  </g>
</svg>
